<?xml version="1.0" encoding="UTF-8" standalone="no"?>
<!-- Created with Inkscape (http://www.inkscape.org/) -->

<svg
   xmlns:dc="http://purl.org/dc/elements/1.1/"
   xmlns:cc="http://creativecommons.org/ns#"
   xmlns:rdf="http://www.w3.org/1999/02/22-rdf-syntax-ns#"
   xmlns:svg="http://www.w3.org/2000/svg"
   xmlns="http://www.w3.org/2000/svg"
   xmlns:sodipodi="http://sodipodi.sourceforge.net/DTD/sodipodi-0.dtd"
   xmlns:inkscape="http://www.inkscape.org/namespaces/inkscape"
   width="64"
   height="64"
   id="svg2"
   version="1.1"
   inkscape:version="0.48.4 r9939"
   inkscape:export-filename="/home/plejeck/.config/awesome/autumn/layouts/floating_2.png"
   inkscape:export-xdpi="90"
   inkscape:export-ydpi="90"
   sodipodi:docname="New document 1">
  <defs
     id="defs4" />
  <sodipodi:namedview
     id="base"
     pagecolor="#ffffff"
     bordercolor="#666666"
     borderopacity="1.0"
     inkscape:pageopacity="0.0"
     inkscape:pageshadow="2"
     inkscape:zoom="5.582086"
     inkscape:cx="25.856073"
     inkscape:cy="29.05817"
     inkscape:document-units="px"
     inkscape:current-layer="layer1"
     showgrid="false"
     inkscape:object-nodes="true"
     inkscape:snap-smooth-nodes="true"
     fit-margin-top="1"
     fit-margin-left="1"
     fit-margin-right="1"
     fit-margin-bottom="1"
     inkscape:window-width="1278"
     inkscape:window-height="773"
     inkscape:window-x="1"
     inkscape:window-y="26"
     inkscape:window-maximized="0" />
  <metadata
     id="metadata7">
    <rdf:RDF>
      <cc:Work
         rdf:about="">
        <dc:format>image/svg+xml</dc:format>
        <dc:type
           rdf:resource="http://purl.org/dc/dcmitype/StillImage" />
        <dc:title></dc:title>
      </cc:Work>
    </rdf:RDF>
  </metadata>
  <g
     inkscape:label="Layer 1"
     inkscape:groupmode="layer"
     id="layer1"
     transform="translate(-7.53125,-978.4872)">
    <path
       style="fill:#743d33;fill-opacity:1;stroke:none"
       d="m 46.088877,994.72856 c -4.714436,0 -8.889869,2.45542 -11.18355,6.20174 -1.183364,-1.18338 -2.769337,-1.93169 -4.57509,-1.93169 -3.611504,0 -6.608461,2.89529 -6.608461,6.50679 0,0.3497 0.15047,0.6819 0.203337,1.0167 -5.389967,0.054 -9.760188,4.4591 -9.760188,9.8619 0,5.4364 4.425459,9.8618 9.861858,9.8618 l 33.042307,0 c 4.328937,0 7.828486,-3.4995 7.828486,-7.8285 0,-3.7204 -2.623361,-6.8229 -6.100119,-7.6251 0.23304,-0.976 0.305006,-2.0027 0.305006,-3.05 0,-7.208 -5.805638,-13.01364 -13.013586,-13.01364 z"
       id="rect3831"
       inkscape:connector-curvature="0" />
  </g>
</svg>
